<svg version="1.1" id="Layer_1" xmlns="http://www.w3.org/2000/svg" xmlns:xlink="http://www.w3.org/1999/xlink" x="0px" y="0px" width="100%" viewBox="0 0 1046.478 1094.073" enable-background="new 0 0 2816 1536">
  <path fill="#19D0EA" opacity="1.000000" stroke="none" d="M 373.126 547.078 C 373.125 547.797 372.619 548.344 371.996 549.111 C 363.564 563.158 340.878 605.75 340.33 606.028 C 339.414 607.422 339.047 608.536 338.679 609.651 C 338.679 609.651 338.862 609.726 338.201 609.991 C 334.571 616.026 327.636 628.442 326.973 629.358 C 326.177 627.415 323.994 590.82 324.481 574.588 C 323.896 564.412 323.208 555.115 323.084 545.81 C 322.474 500.206 323.643 454.649 326.137 409.1 C 328.048 374.202 330.966 339.462 336.665 304.958 C 342.805 267.784 351.634 231.323 364.822 195.992 C 377.363 162.396 394.264 131.221 416.894 103.274 C 419.738 99.761 422.486 96.17 425.849 91.889 C 421.622 88.794 418.269 86.34 413.424 82.792 C 410.13 86.799 407.247 90.399 404.267 93.916 C 369.4 135.057 347.156 182.624 332.976 234.255 C 320.78 278.664 313.932 323.968 310.614 369.855 C 309.826 380.756 308.658 391.629 307.128 402.093 C 306.041 402.628 305.032 403.572 305.006 404.542 C 304.246 432.79 303.436 461.038 302.96 489.292 C 302.668 506.618 302.939 523.954 302.887 541.285 C 302.877 544.45 302.529 547.613 302.261 552.01 C 299.724 550.511 298.156 549.976 297.141 548.946 C 298.155 549.978 299.723 550.512 302.263 552.012 C 302.531 547.616 302.88 544.452 302.889 541.288 C 302.941 523.956 302.67 506.621 302.962 489.294 C 303.438 461.041 304.248 432.792 305.008 404.544 C 305.034 403.574 309.74 366.47 310.827 365.935 C 305.434 421.358 305.691 498.151 305.34 545.974 C 305.16 570.539 306.427 595.116 307.011 619.688 C 307.097 623.289 307.023 626.895 307.023 632.172 C 300.437 627.905 296.907 622.317 291.616 617.777 C 290.89 616.878 290.58 616.359 289.474 615.115 C 275.042 597.81 261.196 581.358 247.349 564.906 C 247.349 564.906 247.321 564.24 247.198 563.051 C 247.15 539.794 247.225 517.726 247.802 495.1 C 248.08 489.623 247.854 484.702 247.514 478.859 C 247.307 469.215 247.215 460.493 247.303 451.151 C 247.431 449.68 247.379 448.827 247.783 447.293 C 248.734 440.421 249.245 434.208 249.748 428.005 C 249.695 427.638 249.642 427.264 249.59 426.884 C 250.484 411.529 251.295 396.947 252.693 382.422 C 254.885 359.655 257.386 336.916 259.93 314.184 C 261.329 301.685 263.081 289.225 264.557 276.451 C 264.441 276.154 264.177 275.574 264.177 275.574 C 265.355 272.329 266.904 269.168 267.653 265.827 C 276.071 228.314 287.67 191.893 304.649 156.115 C 304.796 154.988 304.982 154.089 304.982 154.089 C 309.766 146.139 314.409 138.099 319.359 130.253 C 345.17 89.336 377.412 55.214 420.695 32.142 C 461.278 10.509 504.27 1.879 549.859 5.954 C 559.074 6.778 568.199 9.086 577.246 11.216 C 605.742 17.925 631.97 29.851 656.763 47.301 C 657.979 48.685 658.622 49.016 659.265 49.347 C 659.265 49.347 658.929 49.372 659.248 49.925 C 660.704 50.873 661.842 51.269 662.979 51.664 C 662.979 51.664 662.887 51.753 663.08 52.189 C 663.862 52.958 664.451 53.291 665.04 53.624 C 665.04 53.624 664.915 53.565 664.886 54.287 C 664.827 56.472 664.797 57.934 664.767 59.397 C 663.184 59.077 661.6 58.757 659.046 57.591 C 656.708 56.609 655.341 56.473 653.974 56.336 C 652.693 56.28 651.412 56.225 649.264 55.55 C 647.225 55.052 646.054 55.172 644.882 55.293 C 642.654 54.88 640.426 54.467 637.27 53.428 C 635.19 52.996 634.038 53.19 632.886 53.384 C 622.824 53.4 612.763 53.417 601.353 52.924 C 598.29 52.853 596.575 53.29 594.861 53.727 C 556.652 59.062 522.456 73.425 493.373 99.111 C 472.223 117.79 455.062 139.697 440.838 164.044 C 421.134 197.774 409.632 234.391 400.785 272.192 C 391.183 313.218 386.588 354.812 384.922 396.74 C 383.482 432.99 382.849 469.289 382.815 505.568 C 382.801 520.214 381.862 534.057 373.12 547.077 L 373.126 547.078 Z M 665.315 59.932 C 664.803 57.935 664.833 56.473 664.961 54.282 C 668.115 55.91 671.172 58.268 674.563 61.193 C 671.883 61.33 668.871 60.898 665.315 59.932 Z" data-index="211" style="opacity: 1;"></path>
  <path fill="#1A68AF" opacity="1.000000" stroke="none" d="M 294.594 849.523 C 293.811 848.669 267.039 827.178 265.232 825.267 C 247.271 808.2 200.086 762.685 196.897 759.783 C 193.415 755.905 165.06 725.716 155.04 715.607 C 155.037 715.612 152.139 711.489 150.772 709.972 C 150.797 709.871 126.406 681.018 123.16 677.451 C 123.16 677.451 122.963 677.769 122.92 676.968 C 118.944 671.286 108.961 658.106 107.969 656.956 C 107.969 656.956 107.979 656.795 107.962 656.715 C 106.042 653.823 97.935 642.584 95.793 639.771 C 94.244 637.669 83.849 622.05 79.632 615.957 C 78.401 614.187 54.605 569.935 54.639 569.362 C 53.901 567.865 53.13 566.94 52.359 566.016 C 52.359 566.016 45.291 550.859 44.597 549.836 C 44.597 549.836 26.286 493.277 23.678 483.798 C 19.33 467.992 16.24 451.518 15.301 435.171 C 13.861 410.117 13.545 378.551 19.557 353.784 C 20.388 350.362 34.85 307.726 35.325 307.391 C 36.087 305.858 36.373 304.659 36.659 303.46 C 36.659 303.46 38.347 300.691 38.655 299.502 C 38.655 299.502 40.331 296.686 40.64 295.494 C 40.64 295.494 44.877 287.746 45.548 287.635 C 47.015 285.475 50.507 278.948 50.938 277.846 C 50.938 277.846 52.455 276.116 52.752 275.523 C 52.752 275.523 56.422 270.083 56.711 269.479 C 56.711 269.479 58.097 267.856 58.332 267.183 C 58.332 267.183 60.276 264.678 60.677 263.5 C 60.677 263.5 62.228 261.918 62.523 261.265 C 62.523 261.265 65.155 258.375 65.901 256.965 C 65.901 256.965 68.155 254.59 68.584 253.416 C 68.584 253.416 70.162 251.883 70.452 251.222 C 70.452 251.222 72.419 248.857 72.878 247.739 C 72.878 247.739 74.473 246.175 74.809 245.599 C 74.809 245.599 76.439 244.156 76.804 243.577 C 76.804 243.577 80.428 240.145 80.798 239.564 C 80.798 239.564 82.378 238.071 82.721 237.465 C 82.721 237.465 102.808 217.622 103.227 217.466 C 104.037 216.74 104.429 216.169 104.82 215.599 C 104.82 215.599 138.748 191.499 138.747 191.5 C 138.755 191.491 138.761 191.485 138.761 191.485 C 138.757 191.49 174.867 177.087 187.857 171.312 C 188.955 170.824 191.394 170.478 193.082 170.011 C 189.496 174.942 188.184 176.047 186.513 178.534 C 184.371 181.722 182.776 184.65 182.4 185.233 C 182.4 185.233 173.352 197.387 173.005 197.979 C 173.005 197.979 146.931 243.78 146.348 244.072 C 142.798 250.864 139.581 257.264 136.95 263.897 C 136.194 265.803 133.577 276.472 129.499 288.986 C 123.848 306.325 127.308 328.69 127.937 337.71 C 127.934 341.295 137.266 388.762 139.082 398.164 C 139.625 399.145 142.196 408.258 142.957 412.414 C 144.445 415.397 165.625 471.202 167.059 471.673 C 166.974 471.687 167.041 471.529 167.022 472.164 C 167.688 473.77 170.729 479.918 171.496 481.417 C 171.354 481.477 178.699 494.698 180.019 496.066 C 186.989 507.362 193.077 518.469 200.045 528.993 C 207.9 540.859 216.546 552.2 224.964 564.238 C 225.345 565.344 225.808 565.766 226.587 566.591 C 228.056 568.765 229.406 570.319 230.817 571.81 C 230.878 571.748 253.624 600.131 265.132 614.175 C 267.047 616.49 268.758 618.225 270.631 620.509 C 271.391 621.501 271.987 621.945 272.84 622.972 C 275.782 626.264 278.47 628.973 281.157 631.681 C 281.996 632.907 282.835 634.134 284.4 636.242 C 291.603 643.456 351.129 703.27 352.384 704.399 C 359.7 711.651 366.319 718.134 373.121 725.258 C 373.903 726.455 379.122 730.682 380.974 731.732 C 380.974 731.732 392.818 741.342 398.63 746.083 C 407.904 753.893 416.294 760.849 424.684 767.804 C 423.99 770.58 423.297 773.356 421.98 777.302 C 418.366 784.829 415.375 791.188 412.384 797.546 C 411.157 799.537 409.93 801.528 408.058 804.574 C 404.072 811.676 400.731 817.723 397.39 823.769 C 395.424 825.824 393.681 825.625 391.555 823.719 C 386.44 819.136 381.129 814.771 374.989 809.474 C 365.428 801.046 343.071 782.784 341.115 781.419 C 341.115 781.419 325.34 767.169 323.028 765.388 C 322.026 764.284 321.024 763.18 319.235 761.277 C 277.815 722.959 238.206 684.405 202.909 641.744 C 188.74 624.62 161.403 586.27 160.872 585.748 C 160.883 585.75 133.072 535.965 133.054 535.736 C 132.503 534.71 127.517 525.758 126.897 524.806 C 126.945 524.805 103.381 471.049 96.03 442.773 C 89.532 417.779 85.245 384.41 85.009 375.348 C 84.576 358.729 84.909 342.091 84.844 325.461 C 84.831 322.304 83.691 300.091 82.691 293.608 C 82.562 292.775 71.452 313.104 71.45 313.107 C 71.451 313.103 63.526 338.96 63.528 338.956 C 63.452 338.974 59.858 356.508 60.575 369.395 C 61.383 383.931 62.013 398.385 64.57 412.756 C 65.3 416.862 68.822 444.316 69.659 447.319 C 71.964 455.595 72.729 464.677 75.53 472.772 C 76.38 475.229 85.529 508.033 95.327 529.794 C 108.844 559.812 129.093 586.466 154.242 616.581 C 183.546 651.671 216.654 685.325 248.801 717.714 C 266.114 735.158 284.726 751.314 302.751 768.052 C 307.466 772.562 312.18 777.072 317.77 782.42 C 320.682 784.852 322.72 786.445 324.757 788.038 C 325.788 789.16 362.981 821.774 364.908 823.178 C 371.113 828.556 377.317 833.933 384.139 840.248 C 383.359 843.995 381.961 846.804 380.563 849.613 C 378.733 851.854 376.903 854.095 374.347 857.28 C 369.133 863.969 364.644 869.715 360.155 875.46 C 354.379 881.246 348.604 887.031 342.307 893.339 C 327.16 879.993 294.8 850.038 294.594 849.523 Z M 138.648 191.528 C 138.681 191.519 138.714 191.509 138.746 191.5 C 138.722 191.525 138.673 191.567 138.648 191.528 Z" data-index="234" style="opacity: 1;"></path>
  <path fill="#45CCD9" opacity="1.000000" stroke="none" d="M 183.696 1047.63 C 169.303 1047.25 210.124 1044.58 224.292 1043.08 C 252.26 1040.12 287.154 1032.4 274.024 1036.68 C 255.487 1042.71 236.534 1047.86 216.681 1047.7 C 205.686 1047.62 194.684 1047.91 183.696 1047.63 Z M 339.185 780.012 C 339.619 779.843 340.242 780.184 341.041 781.044 C 340.603 781.216 339.988 780.869 339.185 780.012 Z M 59.773 995.726 C 59.064 990.995 59.064 986.425 59.064 981.465 C 55.226 980.165 51.903 979.025 47.823 977.735 C 46.918 976.025 30.799 941.725 24.125 921.675 C 17.976 903.195 21.22 898.845 20.671 897.375 C 19.088 893.141 28.294 899.545 36.571 909.545 C 46.276 921.265 82.372 953.285 82.786 957.345 C 83.322 962.595 86.499 963.925 91.062 963.745 C 98.255 963.465 136.612 977.755 145.696 979.495 C 151.845 980.675 158.144 981.085 164.387 981.745 C 171.293 982.465 178.2 983.265 185.127 983.715 C 209.07 985.245 231.634 977.955 254.624 973.055 C 265.949 970.645 275.234 964.155 285.73 960.185 C 294.573 956.845 303.392 953.265 311.748 948.885 C 316.637 946.315 320.585 941.965 324.979 938.455 C 334.775 930.615 345.315 923.805 355.504 916.575 C 362.678 911.485 369.602 905.925 377.289 901.505 C 380.832 899.465 380.75 896.255 380.908 892.865 C 381.406 882.164 388.487 872.801 398.562 869.529 C 402.37 868.292 404.755 866.541 405.058 861.953 C 405.258 858.927 407.289 856.022 408.498 853.063 C 410.454 848.271 412.139 843.342 414.463 838.735 C 415.909 835.869 418.525 833.617 420.252 830.861 C 422.664 827.01 424.845 823.001 426.926 818.958 C 429.654 813.661 431.124 807.236 435.064 803.16 C 440.454 797.583 443.107 791.354 445.126 784.262 C 446.284 780.195 448.622 776.464 450.427 772.582 C 454.051 764.786 457.594 756.952 461.343 749.217 C 462.633 746.556 464.353 744.088 466.018 741.627 C 470.092 735.603 474.341 729.731 475.71 722.299 C 477.432 712.952 637.577 680.453 635.289 684.134 C 625.513 699.86 594.014 753.172 586.208 762.985 C 575.732 776.156 568.966 791.635 559.921 805.704 C 553.288 816.021 547.366 826.862 539.955 836.575 C 537.165 840.232 531.072 841.368 525.92 843.935 C 525.976 843.521 525.614 844.285 525.846 844.76 C 530.175 853.635 529.359 856.46 520.951 861.702 C 517.653 863.758 514.42 865.918 511.506 867.804 C 514.028 882.135 512.542 884.728 502.253 884.97 C 499.209 879.82 518.716 837.487 518.752 831.44 C 518.788 825.34 534.727 803.267 537.847 800.814 C 539.801 799.279 480.208 885.276 488.869 888.595 C 491.859 889.74 495.127 890.156 498.204 890.89 C 498.93 898.065 495.825 901.985 489.148 903.095 C 489.367 909.685 488.927 915.455 482.873 919.145 C 481.499 919.975 481.142 922.585 480.458 924.435 C 478.741 929.065 477.717 933.475 471.059 934.345 C 464.62 935.195 468.092 941.085 468.597 945.975 C 463.83 947.875 447.229 953.985 448.437 960.845 C 449.291 965.695 447.975 969.885 444.686 972.635 C 435.627 980.225 429.952 991.295 419.068 997.026 C 416.935 998.156 415.856 1001.16 414.076 1003.1 C 407.571 1010.17 401.082 1017.34 390.356 1018.42 C 387.561 1023.92 384.783 1029.74 377.154 1030.06 C 376.255 1030.1 375.169 1030.69 374.539 1031.37 C 368.369 1038.02 361.195 1042.48 352.478 1045.8 C 340.484 1050.35 329.605 1057.75 317.841 1063.02 C 301.727 1070.25 284.44 1073.03 267.133 1076.4 C 252.518 1079.24 238.189 1079.43 223.638 1079.76 C 204.213 1080.21 185.5 1075.59 166.826 1071.25 C 160.214 1069.71 154.077 1066.01 147.828 1063.07 C 140.399 1059.57 132.799 1056.31 125.786 1052.1 C 115.074 1045.66 105.158 1038.1 95.632 1029.89 C 88.771 1023.97 83.056 1017.71 79.321 1009.99 C 81.052 1005.21 70.734 1001.68 59.773 995.726 M 58.466 996.146 C 54.366 990.765 50.464 985.195 46.391 978.965 C 46.22 978.305 45.028 972.575 45.994 972.555 C 50.283 973.665 55.226 980.165 59.064 981.465 C 59.064 985.155 62.052 984.385 62.052 987.805 C 62.052 988.985 60.972 994.426 60.972 995.606 C 60.972 995.606 58.665 995.956 58.466 996.146 Z M 46.22 978.305 C 40.397 967.135 33.836 956.275 28.923 944.725 C 21.349 926.915 16.457 908.175 13.488 889.022 C 12.75 884.256 12.922 879.348 12.573 872.509 C 20.261 878.008 21.325 885.362 25.205 890.729 C 29.292 896.385 33.126 902.215 37.241 908.625 C 37.412 909.285 37.034 909.615 36.18 909.635 C 31.12 905.915 26.914 902.165 20.87 896.775 C 21.254 902.425 20.915 906.025 21.827 909.265 C 24.675 919.405 25.807 931.025 31.711 939.055 C 38.466 948.235 40.411 958.355 44.097 968.215 C 45.242 971.275 46.084 974.455 46.856 977.755 C 46.648 977.945 46.22 978.305 46.22 978.305 Z M 1039.05 388.906 C 1036.16 385.749 1033.27 381.765 1030.65 377.618 C 1021.96 363.909 1014.21 349.54 1001.43 338.116 C 1000.79 337.881 1000.62 337.907 1000.46 337.255 C 995.066 331.495 990.191 325.923 984.511 321.353 C 944.445 289.108 898.321 273.125 847.163 271.791 C 833.245 271.428 819.199 272.489 805.339 274.036 C 764.728 278.57 728.379 294.319 695.062 317.523 C 693.501 318.609 692.428 320.394 690.627 321.98 C 689.693 322.617 689.259 323.129 688.192 323.692 C 686.074 325.111 642.528 370.599 636.932 377.785 C 636.875 377.762 636.946 377.863 636.32 378.102 C 632.074 384.133 628.455 389.927 624.857 395.735 C 624.878 395.75 624.844 395.711 624.23 395.996 C 618.411 405.086 612.827 413.693 608.091 422.744 C 601.375 435.578 595.284 448.738 588.465 462.139 C 587.511 464.014 587.016 465.509 586.058 467.322 C 585.415 468.343 585.236 469.046 584.764 470.155 C 584.113 471.143 583.949 471.774 583.98 472.457 C 582.665 474.321 581.047 476.04 580.08 478.07 C 566.919 505.697 553.839 533.363 540.784 561.042 C 540.118 562.455 539.864 564.062 538.962 567.134 C 595.96 567.906 652.014 567.015 707.707 567.711 C 710.187 572.211 707.099 574.616 705.47 577.279 C 687.237 607.081 668.927 636.835 650.656 666.614 C 649.964 667.742 649.462 668.986 648.762 670.873 C 642.39 681.336 635.973 691.008 629.891 700.885 C 591.491 763.248 553.509 825.872 514.682 887.967 C 492.069 924.135 467.18 958.705 436.815 989.015 C 401.197 1024.58 360.385 1052.13 313.091 1069.6 C 285.404 1079.84 256.6 1086.26 227.116 1085.29 C 172.589 1083.5 124.315 1064.88 84.684 1026.49 C 75.396 1017.49 67.259 1007.31 58.628 996.816 C 58.665 995.956 59.064 995.576 59.773 995.726 C 70.734 1001.68 81.052 1005.21 79.321 1009.99 C 83.056 1017.71 88.771 1023.97 95.632 1029.89 C 105.158 1038.1 115.074 1045.66 125.786 1052.1 C 132.799 1056.31 140.399 1059.57 147.828 1063.07 C 154.077 1066.01 160.214 1069.71 166.826 1071.25 C 185.5 1075.59 204.213 1080.21 223.638 1079.76 C 238.189 1079.43 252.518 1079.24 267.133 1076.4 C 284.44 1073.03 301.727 1070.25 317.841 1063.02 C 329.605 1057.75 340.484 1050.35 352.478 1045.8 C 361.195 1042.48 368.369 1038.02 374.539 1031.37 C 375.169 1030.69 376.255 1030.1 377.154 1030.06 C 384.783 1029.74 387.561 1023.92 390.356 1018.42 C 401.082 1017.34 407.571 1010.17 414.076 1003.1 C 415.856 1001.16 416.935 998.156 419.068 997.026 C 429.952 991.295 435.627 980.225 444.686 972.635 C 447.975 969.885 449.291 965.695 448.437 960.845 C 447.229 953.985 463.83 947.875 468.597 945.975 C 468.092 941.085 464.62 935.195 471.059 934.345 C 477.717 933.475 478.741 929.065 480.458 924.435 C 481.142 922.585 481.499 919.975 482.873 919.145 C 488.927 915.455 489.367 909.685 489.148 903.095 C 495.825 901.985 498.93 898.065 498.204 890.89 C 495.127 890.156 491.859 889.74 488.869 888.595 C 480.208 885.276 539.801 799.279 537.847 800.814 C 534.727 803.267 518.788 825.34 518.752 831.44 C 518.716 837.487 499.209 879.82 502.253 884.97 C 512.542 884.728 514.028 882.135 511.506 867.804 C 514.42 865.918 517.653 863.758 520.951 861.702 C 529.359 856.46 530.175 853.635 525.846 844.76 C 525.614 844.285 525.976 843.521 525.92 843.935 C 531.072 841.368 537.165 840.232 539.955 836.575 C 547.366 826.862 553.288 816.021 559.921 805.704 C 568.966 791.635 575.732 776.156 586.208 762.985 C 594.014 753.172 477.432 712.952 475.71 722.299 C 474.341 729.731 470.092 735.603 466.018 741.627 C 464.353 744.088 462.633 746.556 461.343 749.217 C 457.594 756.952 454.051 764.786 450.427 772.582 C 448.622 776.464 446.284 780.195 445.126 784.262 C 443.107 791.354 440.454 797.583 435.064 803.16 C 431.124 807.236 429.654 813.661 426.926 818.958 C 424.845 823.001 422.664 827.01 420.252 830.861 C 418.525 833.617 415.909 835.869 414.463 838.735 C 412.139 843.342 410.454 848.271 408.498 853.063 C 407.289 856.022 405.258 858.927 405.058 861.953 C 404.755 866.541 402.37 868.292 398.562 869.529 C 388.487 872.801 381.406 882.164 380.908 892.865 C 380.75 896.255 380.832 899.465 377.289 901.505 C 369.602 905.925 362.678 911.485 355.504 916.575 C 345.315 923.805 334.775 930.615 324.979 938.455 C 320.585 941.965 316.637 946.315 311.748 948.885 C 303.392 953.265 294.573 956.845 285.73 960.185 C 275.234 964.155 265.949 970.645 254.624 973.055 C 231.634 977.955 209.07 985.245 185.127 983.715 C 178.2 983.265 171.293 982.465 164.387 981.745 C 158.144 981.085 151.845 980.675 145.696 979.495 C 136.612 977.755 98.255 963.465 91.062 963.745 C 86.499 963.925 83.322 962.595 82.786 957.345 C 82.372 953.285 39.379 915.485 36.848 909.785 C 37.034 909.615 37.412 909.285 37.412 909.285 C 48.005 920.285 58.196 931.685 70.85 940.525 C 101.209 961.725 134.443 974.715 171.572 978.085 C 209.86 981.545 245.641 972.795 280.172 957.515 C 321.237 939.345 354.151 911.025 382.037 876.028 C 411.135 839.513 432.303 798.465 452.92 757.019 C 465.08 732.572 476.846 707.929 488.725 683.343 C 490.252 680.184 491.388 676.835 493.443 671.747 C 436.925 671.747 382.183 671.747 325.539 671.747 C 327.385 666.971 328.176 663.867 329.693 661.171 C 342.422 638.545 355.323 616.015 368.093 593.412 C 375.951 579.502 383.657 565.506 391.456 551.562 C 412.415 514.09 433.388 476.626 454.355 439.159 C 468.335 414.175 482.051 389.039 496.355 364.243 C 515.832 330.479 536.714 297.734 562.679 268.325 C 581.793 246.675 603.372 228.213 627.018 211.915 C 628.902 210.616 630.552 208.978 632.564 206.921 C 640.798 202.346 648.916 198.598 656.731 194.298 C 675.46 183.994 695.117 176.189 715.942 171.335 C 727.878 168.553 739.806 165.736 752.304 162.434 C 767.143 161.193 781.412 159.924 795.691 159.807 C 847.013 159.387 892.941 175.319 934.202 205.719 C 961.852 226.092 985.481 250.184 1003.58 279.322 C 1024.24 312.566 1037.68 348.383 1039.05 388.906" data-index="1015"></path>
</svg>